<?xml version="1.0" standalone="no"?>
<!DOCTYPE svg PUBLIC "-//W3C//DTD SVG 20010904//EN"
 "http://www.w3.org/TR/2001/REC-SVG-20010904/DTD/svg10.dtd">
<svg version="1.0" xmlns="http://www.w3.org/2000/svg"
 width="1606.000000pt" height="203.000000pt" viewBox="0 0 1606.000000 203.000000"
 preserveAspectRatio="xMidYMid meet">

<g transform="translate(0.000000,203.000000) scale(0.100000,-0.100000)"
fill="#000000" stroke="none">
<path d="M10302 1175 c-12 -58 -25 -112 -29 -121 -5 -13 1 -12 35 5 23 12 48
21 56 21 13 0 36 74 36 119 0 15 -58 81 -70 81 -3 0 -15 -47 -28 -105z"/>
<path d="M12444 1220 c-2 -41 -26 -66 -81 -79 -50 -13 -94 -7 -133 16 -16 10
-8 -2 20 -32 l45 -47 59 6 c56 6 58 5 53 -17 -3 -12 -24 -121 -48 -242 -44
-230 -45 -273 -9 -282 19 -5 19 -6 -2 -35 -39 -55 -135 -75 -201 -42 -31 16
-30 14 12 -30 51 -52 95 -76 142 -76 41 0 116 36 130 62 10 19 13 18 52 -20
l42 -41 111 11 111 11 41 209 c23 118 50 229 63 254 41 86 19 176 -35 140 -40
-26 -58 -78 -102 -293 -24 -119 -46 -218 -47 -219 -1 -2 -53 -8 -115 -15 -104
-11 -114 -10 -132 6 -28 25 -26 56 20 287 22 112 40 212 40 224 0 11 -9 29
-20 39 -27 24 -25 30 10 45 63 26 68 91 13 151 l-38 40 -1 -31z"/>
<path d="M4856 1039 c-10 -50 -7 -54 15 -25 19 25 20 29 7 43 -14 13 -16 11
-22 -18z"/>
<path d="M5927 1048 c-13 -45 -8 -54 15 -30 20 20 21 23 7 38 -15 14 -17 13
-22 -8z"/>
<path d="M7608 1033 c-6 -48 -5 -50 17 -17 15 23 15 28 2 41 -13 13 -15 10
-19 -24z"/>
<path d="M12740 1048 c0 -15 -3 -35 -7 -45 -3 -10 3 -6 17 10 21 26 21 30 6
45 -15 15 -16 14 -16 -10z"/>
<path d="M13840 1070 c0 -24 -94 -517 -106 -559 -35 -123 -97 -205 -183 -245
-38 -17 -65 -21 -161 -21 -105 0 -120 2 -170 27 -30 15 -56 26 -57 24 -2 -2
21 -26 52 -54 84 -77 199 -106 330 -83 122 21 183 69 233 181 37 81 52 148
102 430 l40 225 -40 40 c-22 22 -40 38 -40 35z"/>
<path d="M11650 1044 c0 -8 5 -12 10 -9 6 3 10 10 10 16 0 5 -4 9 -10 9 -5 0
-10 -7 -10 -16z"/>
<path d="M2563 1020 c-13 -5 -32 -24 -43 -42 -24 -38 -65 -166 -57 -175 11
-10 78 8 93 25 69 77 95 170 55 192 -22 11 -19 11 -48 0z"/>
<path d="M7052 1018 c-27 -13 -79 -117 -88 -175 -6 -39 -5 -43 14 -43 40 0 74
25 108 78 46 71 52 104 25 131 -24 24 -27 24 -59 9z"/>
<path d="M8884 1020 c-31 -12 -64 -63 -85 -132 -24 -76 -24 -88 1 -88 30 0 90
27 90 41 0 6 14 31 30 56 33 49 38 93 14 117 -17 18 -20 18 -50 6z"/>
<path d="M9684 1019 c-28 -10 -54 -47 -54 -75 0 -13 16 -36 37 -54 l37 -33 8
24 c5 13 19 31 30 41 19 14 21 21 12 53 -10 41 -36 57 -70 44z"/>
<path d="M13554 1022 c-62 -9 -115 -126 -122 -268 -5 -98 7 -128 47 -117 23 6
27 16 36 96 4 33 19 81 37 115 16 31 35 83 42 114 14 61 10 68 -40 60z"/>
<path d="M3623 996 c-83 -70 -135 -303 -82 -370 34 -43 44 -33 57 52 8 52 25
104 52 159 41 84 51 148 28 171 -17 17 -22 15 -55 -12z"/>
<path d="M4233 1009 c-13 -4 -32 -23 -43 -41 -48 -80 -90 -389 -58 -432 11
-14 22 -17 41 -12 25 6 27 11 27 55 0 58 33 225 55 278 9 20 23 45 32 55 11
12 14 27 9 52 -8 41 -31 57 -63 45z"/>
<path d="M8282 1006 c-60 -32 -115 -166 -116 -284 -1 -76 1 -85 23 -103 38
-31 51 -25 51 24 0 58 22 133 58 203 58 113 50 195 -16 160z"/>
<path d="M11023 1009 c-50 -18 -104 -208 -107 -372 -1 -102 5 -116 47 -117 21
0 22 2 35 105 17 126 41 221 68 260 46 69 19 147 -43 124z"/>
<path d="M5548 931 c2 -49 -4 -122 -17 -194 -12 -64 -21 -127 -21 -141 0 -25
19 -51 42 -58 20 -7 -15 -52 -55 -72 -49 -23 -134 -21 -177 5 -29 17 -24 10
25 -39 48 -47 69 -61 103 -67 62 -10 119 3 156 35 l31 29 35 -34 35 -34 111
11 112 11 40 209 c23 115 50 227 61 248 29 56 37 123 16 143 -21 22 -27 21
-58 -3 -36 -29 -53 -80 -96 -303 -21 -109 -41 -200 -43 -202 -2 -2 -52 -9
-111 -15 -154 -17 -166 -4 -136 146 30 153 35 255 15 307 -9 24 -29 55 -44 70
l-27 26 3 -78z"/>
<path d="M6618 940 c3 -41 -3 -112 -14 -172 -10 -57 -19 -128 -19 -158 0 -48
3 -56 23 -65 25 -11 26 -14 9 -36 -45 -59 -159 -78 -227 -38 -29 17 -24 10 26
-40 51 -50 67 -60 107 -66 29 -5 65 -3 92 5 51 14 94 54 80 74 -48 65 -47 50
-20 201 14 76 25 161 25 189 0 55 -27 120 -63 154 l-23 21 4 -69z"/>
<path d="M7918 952 c3 -47 -1 -63 -20 -91 -32 -48 -78 -73 -138 -74 l-49 -2
41 -42 c37 -38 48 -43 86 -43 74 0 95 18 110 95 7 37 19 80 28 96 17 33 11 49
-33 91 l-28 27 3 -57z"/>
<path d="M8508 971 c7 -75 -47 -122 -140 -123 l-50 0 43 -44 c39 -39 48 -44
89 -44 66 0 89 17 111 80 25 75 24 81 -19 130 l-38 43 4 -42z"/>
<path d="M9917 992 c8 -33 -5 -71 -34 -98 -21 -19 -37 -24 -82 -24 l-56 0 47
-45 c41 -40 52 -45 92 -45 109 0 146 118 62 199 -29 28 -34 30 -29 13z"/>
<path d="M10598 955 c2 -31 -7 -108 -22 -184 -35 -178 -34 -205 7 -228 17 -9
17 -12 -8 -41 -14 -17 -41 -36 -61 -42 -36 -12 -114 -10 -149 5 -34 14 55 -73
93 -91 61 -29 176 -2 202 46 9 17 6 26 -15 52 -21 25 -25 38 -21 62 26 129 56
302 56 327 0 41 -22 89 -56 121 l-29 27 3 -54z"/>
<path d="M11708 1000 c-25 -15 -45 -80 -78 -261 -37 -203 -37 -207 -6 -215 47
-12 60 -2 70 51 33 190 57 291 75 316 23 31 28 88 9 107 -14 14 -47 15 -70 2z"/>
<path d="M13098 955 c2 -32 -7 -111 -22 -188 -14 -74 -26 -148 -26 -165 0 -29
17 -56 41 -64 20 -7 -12 -48 -53 -69 -51 -26 -132 -25 -178 2 -29 17 -24 10
26 -40 51 -50 67 -60 107 -66 29 -5 65 -3 90 4 34 10 45 19 58 49 14 34 14 39
-3 62 -18 25 -18 29 6 150 47 238 44 289 -16 347 l-33 32 3 -54z"/>
<path d="M2798 970 c16 -113 -75 -201 -224 -215 -130 -13 -124 -10 -124 -65 0
-37 5 -55 20 -70 28 -28 47 -25 54 10 5 29 8 30 58 30 65 0 153 20 204 47 44
22 93 100 94 146 0 39 -23 87 -57 120 l-30 27 5 -30z"/>
<path d="M3863 982 c17 -72 -42 -131 -133 -133 l-52 -2 43 -43 c38 -38 49 -44
86 -44 57 0 92 18 99 49 3 14 12 41 20 59 17 39 5 69 -42 112 l-27 25 6 -23z"/>
<path d="M4931 987 c-41 -21 -62 -80 -106 -300 l-43 -212 -38 -6 c-22 -4 -74
-10 -118 -14 l-79 -7 44 -44 44 -43 110 11 c61 6 111 12 112 13 2 1 21 94 43
208 24 124 50 227 65 259 29 61 32 110 9 132 -18 19 -13 19 -43 3z"/>
<path d="M5260 974 c-36 -31 -46 -64 -96 -316 l-36 -186 -52 -6 c-28 -3 -80
-9 -114 -12 l-64 -7 44 -43 43 -43 110 12 110 12 42 211 c26 135 51 231 67
266 28 60 31 80 16 107 -16 30 -38 32 -70 5z"/>
<path d="M6347 993 c-38 -9 -65 -83 -108 -305 l-42 -216 -51 -6 c-28 -3 -80
-9 -114 -12 l-64 -7 44 -43 43 -43 110 12 109 12 42 215 c23 118 51 233 62
255 29 58 33 74 26 101 -7 27 -30 42 -57 37z"/>
<path d="M7682 984 c-42 -29 -62 -89 -98 -302 -20 -114 -36 -208 -38 -209 -1
-1 -53 -7 -116 -13 -63 -7 -116 -13 -117 -14 -2 -1 16 -21 40 -44 l42 -41 115
12 115 12 32 190 c18 104 44 225 58 268 29 91 31 120 9 141 -19 19 -15 19 -42
0z"/>
<path d="M9118 961 c6 -57 -27 -124 -76 -156 -46 -31 -129 -55 -189 -55 -23 0
-54 -5 -69 -10 -25 -10 -26 -14 -21 -57 8 -71 72 -115 79 -55 3 25 7 27 48 29
180 10 278 64 300 166 9 41 7 55 -9 90 -10 23 -29 52 -42 64 l-24 22 3 -38z"/>
<path d="M10312 990 c-36 -15 -60 -85 -105 -310 l-41 -209 -76 -7 c-41 -3 -94
-9 -118 -13 l-43 -6 43 -42 43 -42 114 12 115 12 45 225 c26 128 54 238 64
253 21 33 22 100 1 121 -8 9 -16 16 -17 15 -1 0 -12 -4 -25 -9z"/>
<path d="M7294 941 c-2 -60 -31 -111 -77 -140 -45 -27 -132 -51 -186 -51 -81
0 -91 -6 -91 -57 0 -33 6 -50 25 -68 33 -34 55 -32 55 4 l0 28 83 6 c98 8 143
19 188 50 54 36 79 82 79 144 0 48 -4 58 -37 94 l-38 40 -1 -50z"/>
<path d="M4497 960 c4 -14 8 -74 8 -135 0 -98 -3 -116 -27 -167 -36 -77 -106
-150 -171 -179 -61 -26 -191 -37 -253 -20 -23 6 -59 23 -80 37 -36 24 -35 22
16 -30 30 -31 73 -65 96 -76 87 -43 229 -35 327 18 117 63 185 206 175 370 -5
83 -18 117 -68 172 -28 31 -30 32 -23 10z"/>
<path d="M11291 960 c19 -35 17 -191 -4 -260 -33 -112 -106 -189 -217 -231
-76 -29 -218 -24 -274 9 -21 13 -40 21 -42 19 -3 -2 16 -23 42 -46 82 -77 181
-104 298 -82 160 30 263 145 284 320 15 126 -8 211 -74 271 l-27 25 14 -25z"/>
<path d="M12006 935 c24 -76 13 -200 -24 -279 -40 -86 -82 -130 -160 -168 -60
-30 -75 -33 -154 -33 l-88 0 -9 -50 c-6 -27 -14 -70 -18 -95 -10 -50 -2 -48
-177 -65 l-69 -7 44 -43 44 -43 112 11 112 10 10 51 c6 28 14 71 18 95 l8 44
85 1 c73 1 94 6 150 32 118 56 179 141 200 281 18 114 -3 197 -69 273 l-30 35
15 -50z"/>
<path d="M3215 780 c3 -15 -2 -37 -15 -57 l-20 -33 -128 0 c-95 0 -133 -4
-148 -14 -14 -11 -23 -12 -34 -3 -8 6 8 -13 36 -42 45 -47 54 -52 72 -42 12 6
72 11 140 11 106 0 122 2 146 21 42 33 37 85 -14 140 -35 38 -39 41 -35 19z"/>
<path d="M9504 721 c22 -22 67 -60 100 -83 51 -35 58 -38 45 -18 -15 24 -124
111 -164 132 -11 6 -2 -8 19 -31z"/>
<path d="M9858 682 c9 -127 -104 -220 -278 -229 -80 -5 -88 -3 -145 26 l-60
31 62 -59 c47 -45 76 -64 115 -76 156 -46 342 31 378 158 17 64 6 111 -38 159
l-37 39 3 -49z"/>
<path d="M3795 622 c4 -14 -2 -39 -15 -67 -30 -63 -102 -97 -214 -103 -95 -5
-152 8 -198 45 -18 15 -8 1 22 -31 83 -87 116 -101 230 -101 77 1 105 5 148
24 71 32 102 70 102 127 0 39 -5 50 -41 87 -32 33 -39 37 -34 19z"/>
<path d="M8440 609 c0 -91 -92 -150 -245 -157 -81 -3 -95 -1 -140 22 -27 14
-51 24 -52 22 -2 -2 22 -26 52 -55 71 -64 138 -86 234 -78 168 15 263 102 216
200 -9 19 -27 45 -41 58 l-24 22 0 -34z"/>
<path d="M2720 596 c0 -31 -7 -46 -38 -76 -79 -79 -259 -95 -364 -31 l-53 31
63 -60 c83 -80 115 -93 227 -94 78 -1 98 3 147 26 65 30 98 73 98 126 0 25
-10 43 -40 75 l-39 42 -1 -39z"/>
<path d="M9040 603 c0 -44 -38 -93 -95 -122 -43 -23 -62 -26 -150 -26 -104 0
-136 9 -195 58 -14 11 7 -12 47 -51 57 -56 82 -74 124 -86 96 -29 204 -16 282
34 37 23 48 37 57 71 14 50 3 83 -41 125 l-29 28 0 -31z"/>
<path d="M9547 624 c-12 -12 -8 -69 6 -86 19 -26 58 -27 67 -2 7 17 1 29 -29
58 -20 20 -40 33 -44 30z"/>
<path d="M7216 588 c-9 -49 -31 -75 -89 -105 -39 -19 -72 -27 -130 -31 -97 -6
-158 11 -212 56 -22 19 -6 1 35 -40 62 -62 85 -79 129 -92 73 -21 135 -20 214
4 126 39 167 133 93 209 l-33 33 -7 -34z"/>
<path d="M13280 538 c67 -67 109 -88 175 -88 45 0 53 10 69 78 8 34 14 62 13
62 -1 0 -24 -11 -51 -25 -78 -39 -188 -32 -245 17 -14 12 3 -8 39 -44z"/>
<path d="M13362 401 c-13 -36 -7 -58 19 -71 17 -10 69 5 69 20 0 3 -17 23 -39
44 l-38 38 -11 -31z"/>
</g>
</svg>
